<svg width="40" height="40" viewBox="0 0 40 40" fill="none" xmlns="http://www.w3.org/2000/svg">
<path fill-rule="evenodd" clip-rule="evenodd" d="M5.41669 35C5.41669 34.0054 5.81178 33.0516 6.51504 32.3483C7.2183 31.6451 8.17212 31.25 9.16669 31.25H30.8334C31.8279 31.25 32.7817 31.6451 33.485 32.3483C34.1883 33.0516 34.5834 34.0054 34.5834 35C34.5834 35.9946 34.1883 36.9484 33.485 37.6516C32.7817 38.3549 31.8279 38.75 30.8334 38.75H9.16669C8.17212 38.75 7.2183 38.3549 6.51504 37.6516C5.81178 36.9484 5.41669 35.9946 5.41669 35ZM9.16669 33.75C8.83517 33.75 8.51722 33.8817 8.2828 34.1161C8.04838 34.3505 7.91669 34.6685 7.91669 35C7.91669 35.3315 8.04838 35.6495 8.2828 35.8839C8.51722 36.1183 8.83517 36.25 9.16669 36.25H30.8334C31.1649 36.25 31.4828 36.1183 31.7172 35.8839C31.9517 35.6495 32.0834 35.3315 32.0834 35C32.0834 34.6685 31.9517 34.3505 31.7172 34.1161C31.4828 33.8817 31.1649 33.75 30.8334 33.75H9.16669Z" fill="#262522"/>
<path fill-rule="evenodd" clip-rule="evenodd" d="M5.41669 30C5.41669 29.0054 5.81178 28.0516 6.51504 27.3483C7.2183 26.6451 8.17212 26.25 9.16669 26.25H30.8334C31.8279 26.25 32.7817 26.6451 33.485 27.3483C34.1883 28.0516 34.5834 29.0054 34.5834 30C34.5834 30.9946 34.1883 31.9484 33.485 32.6516C32.7817 33.3549 31.8279 33.75 30.8334 33.75H9.16669C8.17212 33.75 7.2183 33.3549 6.51504 32.6516C5.81178 31.9484 5.41669 30.9946 5.41669 30ZM9.16669 28.75C8.83517 28.75 8.51722 28.8817 8.2828 29.1161C8.04838 29.3505 7.91669 29.6685 7.91669 30C7.91669 30.3315 8.04838 30.6495 8.2828 30.8839C8.51722 31.1183 8.83517 31.25 9.16669 31.25H30.8334C31.1649 31.25 31.4828 31.1183 31.7172 30.8839C31.9517 30.6495 32.0834 30.3315 32.0834 30C32.0834 29.6685 31.9517 29.3505 31.7172 29.1161C31.4828 28.8817 31.1649 28.75 30.8334 28.75H9.16669Z" fill="#262522"/>
<path fill-rule="evenodd" clip-rule="evenodd" d="M5.41669 25C5.41669 24.0054 5.81178 23.0516 6.51504 22.3483C7.2183 21.6451 8.17212 21.25 9.16669 21.25H30.8334C31.8279 21.25 32.7817 21.6451 33.485 22.3483C34.1883 23.0516 34.5834 24.0054 34.5834 25C34.5834 25.9946 34.1883 26.9484 33.485 27.6516C32.7817 28.3549 31.8279 28.75 30.8334 28.75H9.16669C8.17212 28.75 7.2183 28.3549 6.51504 27.6516C5.81178 26.9484 5.41669 25.9946 5.41669 25ZM9.16669 23.75C8.83517 23.75 8.51722 23.8817 8.2828 24.1161C8.04838 24.3505 7.91669 24.6685 7.91669 25C7.91669 25.3315 8.04838 25.6495 8.2828 25.8839C8.51722 26.1183 8.83517 26.25 9.16669 26.25H30.8334C31.1649 26.25 31.4828 26.1183 31.7172 25.8839C31.9517 25.6495 32.0834 25.3315 32.0834 25C32.0834 24.6685 31.9517 24.3505 31.7172 24.1161C31.4828 23.8817 31.1649 23.75 30.8334 23.75H9.16669Z" fill="#262522"/>
<path fill-rule="evenodd" clip-rule="evenodd" d="M9.16669 18.75C8.83517 18.75 8.51722 18.8817 8.2828 19.1161C8.04838 19.3505 7.91669 19.6685 7.91669 20C7.91669 20.3315 8.04838 20.6495 8.2828 20.8839C8.51722 21.1183 8.83517 21.25 9.16669 21.25H30.8334C31.1649 21.25 31.4828 21.1183 31.7172 20.8839C31.9517 20.6495 32.0834 20.3315 32.0834 20C32.0834 19.6685 31.9517 19.3505 31.7172 19.1161C31.4828 18.8817 31.1649 18.75 30.8334 18.75H22.5C22.1685 18.75 21.8506 18.6183 21.6161 18.3839C21.3817 18.1495 21.25 17.8315 21.25 17.5C21.25 17.1685 21.3817 16.8505 21.6161 16.6161C21.8506 16.3817 22.1685 16.25 22.5 16.25H30.8334C31.8279 16.25 32.7817 16.6451 33.485 17.3483C34.1883 18.0516 34.5834 19.0054 34.5834 20C34.5834 20.9946 34.1883 21.9484 33.485 22.6516C32.7817 23.3549 31.8279 23.75 30.8334 23.75H9.16669C8.17212 23.75 7.2183 23.3549 6.51504 22.6516C5.81178 21.9484 5.41669 20.9946 5.41669 20C5.41669 19.0054 5.81178 18.0516 6.51504 17.3483C7.2183 16.6451 8.17212 16.25 9.16669 16.25H17.5C17.8315 16.25 18.1495 16.3817 18.3839 16.6161C18.6183 16.8505 18.75 17.1685 18.75 17.5C18.75 17.8315 18.6183 18.1495 18.3839 18.3839C18.1495 18.6183 17.8315 18.75 17.5 18.75H9.16669Z" fill="#262522"/>
<path fill-rule="evenodd" clip-rule="evenodd" d="M9.16669 13.75C8.83517 13.75 8.51722 13.8817 8.2828 14.1161C8.04838 14.3505 7.91669 14.6685 7.91669 15C7.91669 15.3315 8.04838 15.6495 8.2828 15.8839C8.51722 16.1183 8.83517 16.25 9.16669 16.25H17.5C17.8315 16.25 18.1495 16.3817 18.3839 16.6161C18.6183 16.8505 18.75 17.1685 18.75 17.5C18.75 17.8315 18.6183 18.1495 18.3839 18.3839C18.1495 18.6183 17.8315 18.75 17.5 18.75H9.16669C8.17212 18.75 7.2183 18.3549 6.51504 17.6516C5.81178 16.9484 5.41669 15.9946 5.41669 15C5.41669 14.0054 5.81178 13.0516 6.51504 12.3483C7.2183 11.6451 8.17212 11.25 9.16669 11.25H17.5C17.8315 11.25 18.1495 11.3817 18.3839 11.6161C18.6183 11.8505 18.75 12.1685 18.75 12.5C18.75 12.8315 18.6183 13.1495 18.3839 13.3839C18.1495 13.6183 17.8315 13.75 17.5 13.75H9.16669ZM21.25 12.5C21.25 12.1685 21.3817 11.8505 21.6161 11.6161C21.8506 11.3817 22.1685 11.25 22.5 11.25H30.8334C31.8279 11.25 32.7817 11.6451 33.485 12.3483C34.1883 13.0516 34.5834 14.0054 34.5834 15C34.5834 15.9946 34.1883 16.9484 33.485 17.6516C32.7817 18.3549 31.8279 18.75 30.8334 18.75H22.5C22.1685 18.75 21.8506 18.6183 21.6161 18.3839C21.3817 18.1495 21.25 17.8315 21.25 17.5C21.25 17.1685 21.3817 16.8505 21.6161 16.6161C21.8506 16.3817 22.1685 16.25 22.5 16.25H30.8334C31.1649 16.25 31.4828 16.1183 31.7172 15.8839C31.9517 15.6495 32.0834 15.3315 32.0834 15C32.0834 14.6685 31.9517 14.3505 31.7172 14.1161C31.4828 13.8817 31.1649 13.75 30.8334 13.75H22.5C22.1685 13.75 21.8506 13.6183 21.6161 13.3839C21.3817 13.1495 21.25 12.8315 21.25 12.5Z" fill="#262522"/>
<path fill-rule="evenodd" clip-rule="evenodd" d="M9.16669 8.75C8.83517 8.75 8.51722 8.8817 8.2828 9.11612C8.04838 9.35054 7.91669 9.66848 7.91669 10C7.91669 10.3315 8.04838 10.6495 8.2828 10.8839C8.51722 11.1183 8.83517 11.25 9.16669 11.25H17.5C17.8315 11.25 18.1495 11.3817 18.3839 11.6161C18.6183 11.8505 18.75 12.1685 18.75 12.5C18.75 12.8315 18.6183 13.1495 18.3839 13.3839C18.1495 13.6183 17.8315 13.75 17.5 13.75H9.16669C8.17212 13.75 7.2183 13.3549 6.51504 12.6516C5.81178 11.9484 5.41669 10.9946 5.41669 10C5.41669 9.00544 5.81178 8.05161 6.51504 7.34835C7.2183 6.64509 8.17212 6.25 9.16669 6.25H17.5C17.8315 6.25 18.1495 6.3817 18.3839 6.61612C18.6183 6.85054 18.75 7.16848 18.75 7.5C18.75 7.83152 18.6183 8.14946 18.3839 8.38388C18.1495 8.6183 17.8315 8.75 17.5 8.75H9.16669ZM21.25 7.5C21.25 7.16848 21.3817 6.85054 21.6161 6.61612C21.8506 6.3817 22.1685 6.25 22.5 6.25H30.8334C31.8279 6.25 32.7817 6.64509 33.485 7.34835C34.1883 8.05161 34.5834 9.00544 34.5834 10C34.5834 10.9946 34.1883 11.9484 33.485 12.6516C32.7817 13.3549 31.8279 13.75 30.8334 13.75H22.5C22.1685 13.75 21.8506 13.6183 21.6161 13.3839C21.3817 13.1495 21.25 12.8315 21.25 12.5C21.25 12.1685 21.3817 11.8505 21.6161 11.6161C21.8506 11.3817 22.1685 11.25 22.5 11.25H30.8334C31.1649 11.25 31.4828 11.1183 31.7172 10.8839C31.9517 10.6495 32.0834 10.3315 32.0834 10C32.0834 9.66848 31.9517 9.35054 31.7172 9.11612C31.4828 8.8817 31.1649 8.75 30.8334 8.75H22.5C22.1685 8.75 21.8506 8.6183 21.6161 8.38388C21.3817 8.14946 21.25 7.83152 21.25 7.5Z" fill="#262522"/>
<path fill-rule="evenodd" clip-rule="evenodd" d="M12.0834 5C12.0834 4.00544 12.4785 3.05161 13.1817 2.34835C13.885 1.64509 14.8388 1.25 15.8334 1.25H24.1667C25.1613 1.25 26.1151 1.64509 26.8184 2.34835C27.5216 3.05161 27.9167 4.00544 27.9167 5C27.9167 5.99456 27.5216 6.94839 26.8184 7.65165C26.1151 8.35491 25.1613 8.75 24.1667 8.75H23.75V16.6667C23.75 17.6612 23.355 18.6151 22.6517 19.3183C21.9484 20.0216 20.9946 20.4167 20 20.4167C19.0055 20.4167 18.0517 20.0216 17.3484 19.3183C16.6451 18.6151 16.25 17.6612 16.25 16.6667V8.75H15.8334C14.8388 8.75 13.885 8.35491 13.1817 7.65165C12.4785 6.94839 12.0834 5.99456 12.0834 5ZM15.8334 3.75C15.5019 3.75 15.1839 3.8817 14.9495 4.11612C14.7151 4.35054 14.5834 4.66848 14.5834 5C14.5834 5.33152 14.7151 5.64946 14.9495 5.88388C15.1839 6.1183 15.5019 6.25 15.8334 6.25H17.5C17.8316 6.25 18.1495 6.3817 18.3839 6.61612C18.6183 6.85054 18.75 7.16848 18.75 7.5V16.6667C18.75 16.9982 18.8817 17.3161 19.1162 17.5505C19.3506 17.785 19.6685 17.9167 20 17.9167C20.3316 17.9167 20.6495 17.785 20.8839 17.5505C21.1183 17.3161 21.25 16.9982 21.25 16.6667V7.5C21.25 7.16848 21.3817 6.85054 21.6162 6.61612C21.8506 6.3817 22.1685 6.25 22.5 6.25H24.1667C24.4982 6.25 24.8162 6.1183 25.0506 5.88388C25.285 5.64946 25.4167 5.33152 25.4167 5C25.4167 4.66848 25.285 4.35054 25.0506 4.11612C24.8162 3.8817 24.4982 3.75 24.1667 3.75H15.8334Z" fill="#262522"/>
</svg>
