<svg width="40" height="40" viewBox="0 0 40 40" fill="none" xmlns="http://www.w3.org/2000/svg">
<g clip-path="url(#clip0_7_490)">
<path fill-rule="evenodd" clip-rule="evenodd" d="M0.416687 16.6666C0.416687 7.69163 7.69169 0.416626 16.6667 0.416626H23.3334C32.3084 0.416626 39.5834 7.69163 39.5834 16.6666C39.5834 17.4402 39.2761 18.182 38.7291 18.729C38.1821 19.276 37.4402 19.5833 36.6667 19.5833H3.33335C2.55981 19.5833 1.81794 19.276 1.27096 18.729C0.723978 18.182 0.416687 17.4402 0.416687 16.6666ZM16.6667 2.91663C13.02 2.91663 9.52259 4.36528 6.94397 6.94391C4.36534 9.52253 2.91669 13.0199 2.91669 16.6666C2.91669 16.8966 3.10335 17.0833 3.33335 17.0833H36.6667C36.7772 17.0833 36.8832 17.0394 36.9613 16.9613C37.0395 16.8831 37.0834 16.7771 37.0834 16.6666C37.0834 14.861 36.7277 13.073 36.0367 11.4047C35.3457 9.7365 34.3329 8.22071 33.0561 6.94391C31.7793 5.6671 30.2635 4.65428 28.5953 3.96328C26.927 3.27228 25.139 2.91663 23.3334 2.91663H16.6667ZM0.416687 33.3333C0.416687 34.9909 1.07517 36.5806 2.24727 37.7527C3.41937 38.9248 5.00908 39.5833 6.66669 39.5833H33.3334C34.991 39.5833 36.5807 38.9248 37.7528 37.7527C38.9249 36.5806 39.5834 34.9909 39.5834 33.3333V30C39.5834 29.2264 39.2761 28.4845 38.7291 27.9376C38.1821 27.3906 37.4402 27.0833 36.6667 27.0833H17.5C17.1685 27.0833 16.8506 27.215 16.6161 27.4494C16.3817 27.6838 16.25 28.0018 16.25 28.3333C16.25 28.6648 16.3817 28.9828 16.6161 29.2172C16.8506 29.4516 17.1685 29.5833 17.5 29.5833H36.6667C36.7772 29.5833 36.8832 29.6272 36.9613 29.7053C37.0395 29.7835 37.0834 29.8895 37.0834 30V33.3333C37.0834 34.3279 36.6883 35.2817 35.985 35.9849C35.2817 36.6882 34.3279 37.0833 33.3334 37.0833H6.66669C5.67213 37.0833 4.7183 36.6882 4.01504 35.9849C3.31178 35.2817 2.91669 34.3279 2.91669 33.3333V30C2.91669 29.8895 2.96059 29.7835 3.03873 29.7053C3.11687 29.6272 3.22285 29.5833 3.33335 29.5833H10C10.3315 29.5833 10.6495 29.4516 10.8839 29.2172C11.1183 28.9828 11.25 28.6648 11.25 28.3333C11.25 28.0018 11.1183 27.6838 10.8839 27.4494C10.6495 27.215 10.3315 27.0833 10 27.0833H3.33335C2.55981 27.0833 1.81794 27.3906 1.27096 27.9376C0.723978 28.4845 0.416687 29.2264 0.416687 30V33.3333Z" fill="#262522"/>
<path fill-rule="evenodd" clip-rule="evenodd" d="M0.416687 20.8333C0.416687 19.8387 0.811775 18.8849 1.51504 18.1816C2.2183 17.4783 3.17213 17.0833 4.16669 17.0833H35.8334C36.8279 17.0833 37.7817 17.4783 38.485 18.1816C39.1883 18.8849 39.5834 19.8387 39.5834 20.8333C39.5834 21.8278 39.1883 22.7816 38.485 23.4849C37.7817 24.1882 36.8279 24.5833 35.8334 24.5833H4.16669C3.17213 24.5833 2.2183 24.1882 1.51504 23.4849C0.811775 22.7816 0.416687 21.8278 0.416687 20.8333ZM4.16669 19.5833C3.83517 19.5833 3.51722 19.7149 3.2828 19.9494C3.04838 20.1838 2.91669 20.5017 2.91669 20.8333C2.91669 21.1648 3.04838 21.4827 3.2828 21.7171C3.51722 21.9516 3.83517 22.0833 4.16669 22.0833H35.8334C36.1649 22.0833 36.4828 21.9516 36.7172 21.7171C36.9517 21.4827 37.0834 21.1648 37.0834 20.8333C37.0834 20.5017 36.9517 20.1838 36.7172 19.9494C36.4828 19.7149 36.1649 19.5833 35.8334 19.5833H4.16669Z" fill="#262522"/>
<path fill-rule="evenodd" clip-rule="evenodd" d="M4.16669 24.5833C3.83517 24.5833 3.51722 24.715 3.2828 24.9494C3.04838 25.1839 2.91669 25.5018 2.91669 25.8333C2.91669 26.1649 3.04838 26.4828 3.2828 26.7172C3.51722 26.9516 3.83517 27.0833 4.16669 27.0833H10C10.3315 27.0833 10.6495 27.215 10.8839 27.4494C11.1183 27.6839 11.25 28.0018 11.25 28.3333V29.6667C11.25 30.3076 11.5046 30.9223 11.9578 31.3755C12.4111 31.8287 13.0257 32.0833 13.6667 32.0833C14.3076 32.0833 14.9223 31.8287 15.3755 31.3755C15.8287 30.9223 16.0834 30.3076 16.0834 29.6667V28.3333C16.0834 28.0018 16.2151 27.6839 16.4495 27.4494C16.6839 27.215 17.0018 27.0833 17.3334 27.0833H35.8334C36.1649 27.0833 36.4828 26.9516 36.7172 26.7172C36.9517 26.4828 37.0834 26.1649 37.0834 25.8333C37.0834 25.5018 36.9517 25.1839 36.7172 24.9494C36.4828 24.715 36.1649 24.5833 35.8334 24.5833H4.16669ZM0.416687 25.8333C0.416687 24.8388 0.811775 23.8849 1.51504 23.1817C2.2183 22.4784 3.17213 22.0833 4.16669 22.0833H35.8334C36.8279 22.0833 37.7817 22.4784 38.485 23.1817C39.1883 23.8849 39.5834 24.8388 39.5834 25.8333C39.5834 26.8279 39.1883 27.7817 38.485 28.485C37.7817 29.1882 36.8279 29.5833 35.8334 29.5833H18.5834V29.6667C18.5834 30.9706 18.0653 32.2212 17.1433 33.1433C16.2212 34.0653 14.9707 34.5833 13.6667 34.5833C12.3627 34.5833 11.1121 34.0653 10.1901 33.1433C9.26803 32.2212 8.75002 30.9706 8.75002 29.6667V29.5833H4.16669C3.17213 29.5833 2.2183 29.1882 1.51504 28.485C0.811775 27.7817 0.416687 26.8279 0.416687 25.8333ZM12.55 9.11667C12.7841 9.35104 12.9156 9.66875 12.9156 10C12.9156 10.3312 12.7841 10.649 12.55 10.8833L10.8834 12.55C10.6464 12.7708 10.333 12.891 10.0091 12.8853C9.68531 12.8796 9.37634 12.7484 9.14732 12.5194C8.9183 12.2903 8.78711 11.9814 8.7814 11.6575C8.77568 11.3337 8.89589 11.0203 9.11669 10.7833L10.7834 9.11667C11.0177 8.88258 11.3354 8.7511 11.6667 8.7511C11.9979 8.7511 12.3156 8.88258 12.55 9.11667ZM20.8834 9.11667C21.1174 9.35104 21.2489 9.66875 21.2489 10C21.2489 10.3312 21.1174 10.649 20.8834 10.8833L19.2167 12.55C19.1023 12.6728 18.9643 12.7713 18.8109 12.8396C18.6576 12.908 18.4921 12.9447 18.3242 12.9477C18.1564 12.9506 17.9897 12.9197 17.834 12.8569C17.6784 12.794 17.537 12.7004 17.4183 12.5817C17.2996 12.463 17.206 12.3216 17.1432 12.166C17.0803 12.0103 17.0494 11.8436 17.0524 11.6758C17.0553 11.508 17.0921 11.3424 17.1604 11.1891C17.2287 11.0358 17.3272 10.8978 17.45 10.7833L19.1167 9.11667C19.3511 8.88258 19.6688 8.7511 20 8.7511C20.3313 8.7511 20.649 8.88258 20.8834 9.11667ZM29.2167 9.11667C29.4508 9.35104 29.5823 9.66875 29.5823 10C29.5823 10.3312 29.4508 10.649 29.2167 10.8833L27.55 12.55C27.4356 12.6728 27.2976 12.7713 27.1443 12.8396C26.9909 12.908 26.8254 12.9447 26.6576 12.9477C26.4897 12.9506 26.323 12.9197 26.1674 12.8569C26.0117 12.794 25.8703 12.7004 25.7516 12.5817C25.6329 12.463 25.5394 12.3216 25.4765 12.166C25.4136 12.0103 25.3827 11.8436 25.3857 11.6758C25.3887 11.508 25.4254 11.3424 25.4937 11.1891C25.562 11.0358 25.6605 10.8978 25.7834 10.7833L27.45 9.11667C27.6844 8.88258 28.0021 8.7511 28.3334 8.7511C28.6646 8.7511 28.9823 8.88258 29.2167 9.11667Z" fill="#262522"/>
</g>
<defs>
<clipPath id="clip0_7_490">
<rect width="40" height="40" fill="white"/>
</clipPath>
</defs>
</svg>
