<svg width="40" height="40" viewBox="0 0 40 40" fill="none" xmlns="http://www.w3.org/2000/svg">
<path fill-rule="evenodd" clip-rule="evenodd" d="M8.89677 7.65831C6.09843 9.47664 4.58344 11.8416 4.58344 14.2716C4.58344 16.7 6.1001 19.065 8.89677 20.8833C11.6801 22.6933 15.6034 23.855 20.0001 23.855C24.3968 23.855 28.3184 22.6933 31.1034 20.8833C33.9018 19.065 35.4168 16.7 35.4168 14.2716C35.4168 11.8416 33.9001 9.47664 31.1034 7.65831C28.3201 5.84998 24.3968 4.68831 20.0001 4.68831C15.6034 4.68831 11.6818 5.84831 8.89677 7.65831ZM7.53343 5.56165C10.7801 3.45165 15.1918 2.18665 20.0001 2.18665C24.8084 2.18665 29.2201 3.45331 32.4668 5.56165C35.7001 7.66498 37.9168 10.7166 37.9168 14.2716C37.9168 17.825 35.7001 20.8766 32.4668 22.9783C29.2201 25.09 24.8084 26.3533 20.0001 26.3533C15.1918 26.3533 10.7801 25.09 7.53343 22.98C4.3001 20.8766 2.08344 17.825 2.08344 14.27C2.08344 10.7166 4.3001 7.66498 7.53343 5.56165Z" fill="#262522"/>
<path fill-rule="evenodd" clip-rule="evenodd" d="M3.24168 12.8166C3.57205 12.7923 3.89857 12.9001 4.14951 13.1163C4.40045 13.3326 4.55529 13.6396 4.58001 13.97L5.13835 21.5116C5.4139 25.2648 7.0993 28.7748 9.85605 31.3365C12.6128 33.8983 16.2367 35.3222 20 35.3222C23.7633 35.3222 27.3872 33.8983 30.144 31.3365C32.9007 28.7748 34.5861 25.2648 34.8617 21.5116L35.42 13.97C35.4443 13.6393 35.599 13.3319 35.85 13.1153C36.101 12.8987 36.4277 12.7906 36.7584 12.815C37.089 12.8393 37.3964 12.9939 37.613 13.2449C37.8296 13.4959 37.9377 13.8226 37.9133 14.1533L37.355 21.6966C37.0334 26.0796 35.0653 30.1785 31.846 33.1702C28.6268 36.1619 24.3948 37.8247 20 37.8247C15.6053 37.8247 11.3733 36.1619 8.15401 33.1702C4.93474 30.1785 2.96665 26.0796 2.64501 21.6966L2.08668 14.155C2.07464 13.9912 2.09496 13.8268 2.14649 13.6709C2.19802 13.515 2.27974 13.3708 2.38699 13.2466C2.49425 13.1223 2.62493 13.0204 2.77157 12.9466C2.91822 12.8728 3.07797 12.8287 3.24168 12.8166Z" fill="#262522"/>
<path fill-rule="evenodd" clip-rule="evenodd" d="M11.6667 9.58331C11.3352 9.58331 11.0172 9.715 10.7828 9.94943C10.5484 10.1838 10.4167 10.5018 10.4167 10.8333C10.4167 11.1648 10.5484 11.4828 10.7828 11.7172C11.0172 11.9516 11.3352 12.0833 11.6667 12.0833C11.9982 12.0833 12.3161 11.9516 12.5506 11.7172C12.785 11.4828 12.9167 11.1648 12.9167 10.8333C12.9167 10.5018 12.785 10.1838 12.5506 9.94943C12.3161 9.715 11.9982 9.58331 11.6667 9.58331ZM7.91668 10.8333C7.91668 10.3409 8.01368 9.85322 8.20213 9.39825C8.39059 8.94328 8.66681 8.52988 9.01503 8.18166C9.36325 7.83344 9.77665 7.55722 10.2316 7.36876C10.6866 7.18031 11.1742 7.08331 11.6667 7.08331C12.1591 7.08331 12.6468 7.18031 13.1017 7.36876C13.5567 7.55722 13.9701 7.83344 14.3183 8.18166C14.6666 8.52988 14.9428 8.94328 15.1312 9.39825C15.3197 9.85322 15.4167 10.3409 15.4167 10.8333C15.4167 11.8279 15.0216 12.7817 14.3183 13.485C13.6151 14.1882 12.6612 14.5833 11.6667 14.5833C10.6721 14.5833 9.71829 14.1882 9.01503 13.485C8.31177 12.7817 7.91668 11.8279 7.91668 10.8333ZM30.8333 12.9166C30.5018 12.9166 30.1839 13.0483 29.9495 13.2828C29.715 13.5172 29.5833 13.8351 29.5833 14.1666C29.5833 14.4982 29.715 14.8161 29.9495 15.0505C30.1839 15.2849 30.5018 15.4166 30.8333 15.4166C31.1649 15.4166 31.4828 15.2849 31.7172 15.0505C31.9517 14.8161 32.0833 14.4982 32.0833 14.1666C32.0833 13.8351 31.9517 13.5172 31.7172 13.2828C31.4828 13.0483 31.1649 12.9166 30.8333 12.9166ZM27.0833 14.1666C27.0833 13.1721 27.4784 12.2183 28.1817 11.515C28.885 10.8117 29.8388 10.4166 30.8333 10.4166C31.8279 10.4166 32.7817 10.8117 33.485 11.515C34.1883 12.2183 34.5833 13.1721 34.5833 14.1666C34.5833 15.1612 34.1883 16.115 33.485 16.8183C32.7817 17.5216 31.8279 17.9166 30.8333 17.9166C29.8388 17.9166 28.885 17.5216 28.1817 16.8183C27.4784 16.115 27.0833 15.1612 27.0833 14.1666ZM23.2767 8.15664C22.7367 8.33664 22.09 8.76498 21.5317 9.44998C20.9733 10.1333 20.6833 10.8533 20.6167 11.42C20.5483 12.0033 20.72 12.2416 20.8083 12.315C20.8983 12.3866 21.165 12.5066 21.7217 12.3216C22.2633 12.1433 22.91 11.715 23.4683 11.03C24.0267 10.3466 24.3167 9.62498 24.3833 9.05831C24.4517 8.47498 24.28 8.23831 24.1917 8.16498C24.1017 8.09331 23.835 7.97331 23.2767 8.15664ZM22.4917 5.78498C23.5333 5.43998 24.7917 5.42831 25.7717 6.22831C26.7517 7.02831 26.995 8.26164 26.8667 9.35164C26.7367 10.4583 26.2183 11.6133 25.4067 12.61C24.5933 13.605 23.5667 14.345 22.5083 14.695C21.4667 15.04 20.2083 15.0516 19.2283 14.2516C18.2483 13.4516 18.005 12.2183 18.1333 11.1283C18.2633 10.0216 18.7817 8.86664 19.5933 7.86998C20.4067 6.87331 21.4333 6.13498 22.4917 5.78498ZM15.7883 13.75C15.9941 13.75 16.1967 13.8008 16.3781 13.8979C16.5596 13.995 16.7142 14.1354 16.8283 14.3066L20.1617 19.3066C20.2872 19.4949 20.3592 19.7137 20.3701 19.9396C20.3811 20.1656 20.3304 20.3903 20.2237 20.5898C20.1169 20.7892 19.9581 20.956 19.764 21.0723C19.5699 21.1885 19.3479 21.25 19.1217 21.25H12.455C12.2288 21.25 12.0068 21.1885 11.8127 21.0723C11.6186 20.956 11.4598 20.7892 11.353 20.5898C11.2463 20.3903 11.1956 20.1656 11.2066 19.9396C11.2175 19.7137 11.2895 19.4949 11.415 19.3066L14.7483 14.3066C14.8625 14.1354 15.0171 13.995 15.1986 13.8979C15.38 13.8008 15.5826 13.75 15.7883 13.75ZM14.79 18.75H16.785L15.7883 17.2533L14.79 18.75ZM23.2883 17.0833C23.6199 17.0833 23.9378 17.215 24.1722 17.4494C24.4067 17.6838 24.5383 18.0018 24.5383 18.3333V21.6666C24.5383 21.9982 24.4067 22.3161 24.1722 22.5505C23.9378 22.7849 23.6199 22.9166 23.2883 22.9166C22.9568 22.9166 22.6389 22.7849 22.4045 22.5505C22.17 22.3161 22.0383 21.9982 22.0383 21.6666V18.3333C22.0383 18.0018 22.17 17.6838 22.4045 17.4494C22.6389 17.215 22.9568 17.0833 23.2883 17.0833ZM26.6217 16.25C26.9532 16.25 27.2711 16.3817 27.5056 16.6161C27.74 16.8505 27.8717 17.1685 27.8717 17.5V20.8333C27.8717 21.1648 27.74 21.4828 27.5056 21.7172C27.2711 21.9516 26.9532 22.0833 26.6217 22.0833C26.2902 22.0833 25.9722 21.9516 25.7378 21.7172C25.5034 21.4828 25.3717 21.1648 25.3717 20.8333V17.5C25.3717 17.1685 25.5034 16.8505 25.7378 16.6161C25.9722 16.3817 26.2902 16.25 26.6217 16.25ZM6.57002 14.95C6.6861 14.8338 6.82393 14.7417 6.97564 14.6788C7.12735 14.6159 7.28996 14.5836 7.45418 14.5836C7.6184 14.5836 7.78101 14.6159 7.93272 14.6788C8.08443 14.7417 8.22226 14.8338 8.33835 14.95L10.8383 17.45C10.9612 17.5644 11.0597 17.7024 11.128 17.8557C11.1963 18.0091 11.233 18.1746 11.236 18.3424C11.239 18.5103 11.2081 18.677 11.1452 18.8326C11.0824 18.9883 10.9888 19.1297 10.8701 19.2484C10.7514 19.3671 10.61 19.4606 10.4543 19.5235C10.2987 19.5864 10.132 19.6173 9.96414 19.6143C9.79631 19.6113 9.63078 19.5746 9.47745 19.5063C9.32412 19.438 9.18612 19.3395 9.07168 19.2166L6.57168 16.7166C6.3376 16.4823 6.20612 16.1646 6.20612 15.8333C6.20612 15.5021 6.3376 15.1844 6.57168 14.95H6.57002Z" fill="#262522"/>
</svg>
