<svg width="64" height="64" viewBox="0 0 64 64" fill="none" xmlns="http://www.w3.org/2000/svg">
<path fill-rule="evenodd" clip-rule="evenodd" d="M17.4587 46.544C16.7803 45.8477 15.9704 45.2931 15.076 44.9123C14.1815 44.5315 13.2204 44.3322 12.2483 44.3259C11.2762 44.3196 10.3125 44.5064 9.41316 44.8754C8.51383 45.2445 7.69676 45.7886 7.00937 46.4759C6.32198 47.1633 5.77795 47.9804 5.40886 48.8797C5.03977 49.7791 4.85297 50.7427 4.8593 51.7148C4.86563 52.6869 5.06496 53.6481 5.44572 54.5426C5.82649 55.437 6.38111 56.2469 7.07739 56.9253C8.46011 58.2725 10.3178 59.0208 12.2483 59.0082C14.1787 58.9957 16.0265 58.2232 17.3916 56.8582C18.7566 55.4931 19.5291 53.6453 19.5417 51.7148C19.5542 49.7844 18.8059 47.9267 17.4587 46.544ZM5.19206 44.6586C6.11639 43.7075 7.22057 42.9495 8.44041 42.4288C9.66026 41.9081 10.9714 41.6351 12.2977 41.6256C13.624 41.6161 14.939 41.8704 16.1661 42.3735C17.3933 42.8767 18.5082 43.6188 19.4461 44.5566C20.3839 45.4945 21.126 46.6094 21.6292 47.8366C22.1323 49.0637 22.3866 50.3787 22.3771 51.705C22.3676 53.0313 22.0946 54.3424 21.5739 55.5623C21.0532 56.7821 20.2952 57.8863 19.3441 58.8106C17.4583 60.6432 14.9271 61.6599 12.2977 61.6411C9.6683 61.6223 7.15193 60.5694 5.2926 58.7101C3.43328 56.8508 2.3804 54.3344 2.36158 51.705C2.34277 49.0756 3.35953 46.5444 5.19206 44.6586Z" fill="#262522"/>
<path fill-rule="evenodd" clip-rule="evenodd" d="M11.8772 52.1253C11.7736 52.0217 11.7154 51.8812 11.7154 51.7346C11.7154 51.5881 11.7736 51.4476 11.8772 51.344C11.9808 51.2404 12.1213 51.1822 12.2679 51.1822C12.4144 51.1822 12.5549 51.2404 12.6585 51.344C12.7098 51.3953 12.7505 51.4562 12.7783 51.5232C12.8061 51.5903 12.8204 51.6621 12.8204 51.7346C12.8204 51.8072 12.8061 51.879 12.7783 51.9461C12.7505 52.0131 12.7098 52.074 12.6585 52.1253C12.6072 52.1766 12.5463 52.2173 12.4793 52.2451C12.4123 52.2728 12.3404 52.2871 12.2679 52.2871C12.1953 52.2871 12.1235 52.2728 12.0564 52.2451C11.9894 52.2173 11.9285 52.1766 11.8772 52.1253ZM9.99187 49.4586C9.69298 49.7575 9.45589 50.1124 9.29413 50.5029C9.13238 50.8934 9.04912 51.312 9.04912 51.7346C9.04912 52.1573 9.13238 52.5759 9.29413 52.9664C9.45589 53.3569 9.69298 53.7118 9.99187 54.0106C10.5955 54.6143 11.4142 54.9534 12.2679 54.9534C12.6906 54.9534 13.1091 54.8701 13.4996 54.7084C13.8902 54.5466 14.245 54.3095 14.5439 54.0106C15.1475 53.407 15.4866 52.5883 15.4866 51.7346C15.4866 50.881 15.1475 50.0623 14.5439 49.4586C13.9402 48.855 13.1215 48.5159 12.2679 48.5159C11.4142 48.5159 10.5955 48.855 9.99187 49.4586ZM40.8185 1.33331C41.0053 1.32351 41.192 1.35311 41.3666 1.42019C41.5412 1.48726 41.6997 1.59031 41.8319 1.72265L47.9652 7.85598C48.0993 7.98958 48.2035 8.15021 48.2707 8.32718C48.3379 8.50415 48.3667 8.69341 48.3551 8.88236C48.3435 9.07131 48.2918 9.25562 48.2034 9.42304C48.115 9.59045 47.992 9.73713 47.8425 9.85332L38.7732 16.9066L17.4079 44.3733C17.3019 44.5158 17.1686 44.6357 17.0157 44.726C16.8628 44.8162 16.6934 44.875 16.5174 44.899C16.3415 44.9229 16.1625 44.9114 15.9911 44.8652C15.8196 44.819 15.6591 44.7391 15.519 44.63C15.3789 44.521 15.2619 44.385 15.1751 44.2302C15.0882 44.0753 15.0331 43.9047 15.0131 43.7283C14.993 43.5518 15.0084 43.3732 15.0584 43.2028C15.1083 43.0324 15.1918 42.8737 15.3039 42.736L36.7705 15.136C36.8389 15.0492 36.9177 14.9713 37.0052 14.904L45.0132 8.67465L40.9945 4.65598L7.17054 46.44C7.06023 46.576 6.9242 46.689 6.77022 46.7725C6.61625 46.856 6.44733 46.9083 6.27313 46.9265C5.92131 46.9633 5.5693 46.8588 5.29454 46.636C5.01977 46.4132 4.84476 46.0904 4.80801 45.7386C4.77125 45.3868 4.87576 45.0347 5.09854 44.76L39.8532 1.82665C39.9708 1.68189 40.1175 1.56342 40.2838 1.4789C40.4501 1.39438 40.6323 1.34303 40.8185 1.33331ZM62.6665 23.1813C62.6763 22.9946 62.6467 22.8078 62.5797 22.6332C62.5126 22.4587 62.4095 22.3001 62.2772 22.168L56.1439 16.0346C56.0101 15.9007 55.8493 15.7967 55.6722 15.7297C55.4952 15.6627 55.3059 15.6342 55.1169 15.6461C54.9279 15.6579 54.7437 15.7099 54.5764 15.7985C54.409 15.8871 54.2625 16.0103 54.1465 16.16L47.0932 25.2267L19.6265 46.592C19.3472 46.8091 19.1655 47.1283 19.1215 47.4794C19.0775 47.8304 19.1747 48.1846 19.3919 48.464C19.609 48.7433 19.9282 48.925 20.2793 48.969C20.6303 49.013 20.9845 48.9158 21.2639 48.6986L48.8639 27.232C48.9505 27.1636 49.0285 27.0848 49.0959 26.9973L55.3252 18.9893L59.3439 23.008L17.5599 56.8266C17.2848 57.0494 17.1094 57.3724 17.0724 57.7244C17.0354 58.0765 17.1398 58.4289 17.3625 58.704C17.5853 58.9791 17.9083 59.1545 18.2603 59.1915C18.6124 59.2285 18.9648 59.1241 19.2399 58.9013L62.1732 24.144C62.318 24.0264 62.4364 23.8797 62.521 23.7134C62.6055 23.5471 62.6542 23.3649 62.6639 23.1786L62.6665 23.1813Z" fill="#262522"/>
<path fill-rule="evenodd" clip-rule="evenodd" d="M32.3898 11.056C32.5136 10.9318 32.6608 10.8333 32.8227 10.7661C32.9847 10.6988 33.1584 10.6642 33.3338 10.6642C33.5091 10.6642 33.6828 10.6988 33.8448 10.7661C34.0068 10.8333 34.1539 10.9318 34.2778 11.056L38.2778 15.056C38.4017 15.1799 38.5001 15.3271 38.5672 15.4891C38.6343 15.651 38.6688 15.8246 38.6688 16C38.6688 16.1753 38.6343 16.3489 38.5672 16.5109C38.5001 16.6728 38.4017 16.82 38.2778 16.944C38.1538 17.0679 38.0066 17.1663 37.8447 17.2334C37.6827 17.3004 37.5091 17.335 37.3338 17.335C37.1584 17.335 36.9848 17.3004 36.8229 17.2334C36.6609 17.1663 36.5137 17.0679 36.3898 16.944L32.3898 12.944C32.2656 12.8201 32.1671 12.673 32.0999 12.511C32.0326 12.349 31.998 12.1753 31.998 12C31.998 11.8246 32.0326 11.6509 32.0999 11.4889C32.1671 11.327 32.2656 11.1798 32.3898 11.056ZM47.0564 25.7226C47.1803 25.5985 47.3274 25.4999 47.4894 25.4327C47.6514 25.3655 47.8251 25.3309 48.0004 25.3309C48.1758 25.3309 48.3495 25.3655 48.5115 25.4327C48.6734 25.4999 48.8206 25.5985 48.9444 25.7226L52.9444 29.7226C53.1948 29.973 53.3354 30.3126 53.3354 30.6666C53.3354 31.0207 53.1948 31.3603 52.9444 31.6106C52.6941 31.861 52.3545 32.0016 52.0004 32.0016C51.6464 32.0016 51.3068 31.861 51.0564 31.6106L47.0564 27.6106C46.9323 27.4868 46.8337 27.3396 46.7665 27.1777C46.6993 27.0157 46.6647 26.842 46.6647 26.6666C46.6647 26.4912 46.6993 26.3176 46.7665 26.1556C46.8337 25.9936 46.9323 25.8465 47.0564 25.7226Z" fill="#262522"/>
</svg>
