<svg width="64" height="64" viewBox="0 0 64 64" fill="none" xmlns="http://www.w3.org/2000/svg">
<g clip-path="url(#clip0_111_173)">
<path d="M25.3333 24C24.9797 24 24.6406 23.8595 24.3905 23.6095C24.1405 23.3594 24 23.0203 24 22.6666V14.6666C24 14.313 24.1405 13.9739 24.3905 13.7238C24.6406 13.4738 24.9797 13.3333 25.3333 13.3333C25.687 13.3333 26.0261 13.4738 26.2761 13.7238C26.5262 13.9739 26.6667 14.313 26.6667 14.6666V22.6666C26.6667 23.0203 26.5262 23.3594 26.2761 23.6095C26.0261 23.8595 25.687 24 25.3333 24ZM38.6667 24C38.313 24 37.9739 23.8595 37.7239 23.6095C37.4738 23.3594 37.3333 23.0203 37.3333 22.6666V14.6666C37.3333 14.313 37.4738 13.9739 37.7239 13.7238C37.9739 13.4738 38.313 13.3333 38.6667 13.3333C39.0203 13.3333 39.3594 13.4738 39.6095 13.7238C39.8595 13.9739 40 14.313 40 14.6666V22.6666C40 23.0203 39.8595 23.3594 39.6095 23.6095C39.3594 23.8595 39.0203 24 38.6667 24Z" fill="#262522"/>
<path d="M55.7783 16H7.84228C6.44324 16.0009 5.07946 15.5611 3.94451 14.743C2.80957 13.925 1.96112 12.7702 1.51962 11.4426L0.0662823 7.08798C0.000716766 6.88745 -0.0165217 6.67425 0.0159728 6.46579C0.0484673 6.25733 0.129774 6.0595 0.253264 5.88843C0.376753 5.71737 0.538927 5.57791 0.726559 5.48144C0.914192 5.38497 1.12197 5.33421 1.33295 5.33331H62.6663C62.8857 5.33408 63.1015 5.38886 63.2947 5.49281C63.4879 5.59676 63.6525 5.74668 63.774 5.92934C63.8955 6.11199 63.9701 6.32176 63.9914 6.54011C64.0126 6.75847 63.9797 6.97868 63.8956 7.18131L61.9303 11.9013C61.4254 13.1165 60.5713 14.1545 59.4762 14.8841C58.3811 15.6137 57.0942 16.002 55.7783 16ZM3.18095 7.99998L4.04762 10.6C4.3134 11.3961 4.82286 12.0884 5.50388 12.579C6.18491 13.0695 7.00298 13.3334 7.84228 13.3333H55.7756C57.3943 13.3333 58.845 12.368 59.4689 10.872L60.6663 7.99998H3.18095ZM51.9996 58.6666H11.9996C11.4318 58.6658 10.8706 58.5443 10.3534 58.3101C9.83609 58.0758 9.37453 57.7343 8.9993 57.3082C8.62406 56.882 8.34373 56.3809 8.1769 55.8381C8.01007 55.2954 7.96054 54.7233 8.03162 54.16L11.4209 27.1706C11.6258 25.5597 12.4104 24.0786 13.6281 23.0043C14.8458 21.9299 16.4131 21.3359 18.0369 21.3333H45.9623C49.3143 21.3333 52.1569 23.84 52.5756 27.168L55.9676 54.1627C56.0383 54.7258 55.9884 55.2975 55.8214 55.84C55.6544 56.3824 55.374 56.8832 54.9988 57.309C54.6236 57.7349 54.1622 58.0762 53.6451 58.3102C53.1281 58.5443 52.5672 58.6658 51.9996 58.6666ZM18.0369 24C16.0263 24 14.3196 25.504 14.0689 27.5013L10.677 54.4986C10.6663 55.4 11.2636 56 11.9996 56H51.9996C52.3532 56 52.6924 55.8595 52.9424 55.6095C53.1925 55.3594 53.3329 55.0203 53.3329 54.6666L49.9303 27.5013C49.8077 26.535 49.3372 25.6465 48.6069 25.002C47.8765 24.3576 46.9363 24.0013 45.9623 24H18.0369Z" fill="#262522"/>
<path d="M42.6667 45.3333C42.313 45.3333 41.9739 45.1929 41.7239 44.9428C41.4738 44.6928 41.3333 44.3536 41.3333 44C41.3333 38.8533 37.1467 34.6667 32 34.6667C26.8533 34.6667 22.6667 38.8533 22.6667 44C22.6667 44.3536 22.5262 44.6928 22.2761 44.9428C22.0261 45.1929 21.687 45.3333 21.3333 45.3333C20.9797 45.3333 20.6406 45.1929 20.3905 44.9428C20.1405 44.6928 20 44.3536 20 44C20 37.384 25.384 32 32 32C38.616 32 44 37.384 44 44C44 44.3536 43.8595 44.6928 43.6095 44.9428C43.3594 45.1929 43.0203 45.3333 42.6667 45.3333Z" fill="#262522"/>
<path d="M32.0003 48C31.7729 48 31.5493 47.9418 31.3508 47.8311C31.1522 47.7203 30.9853 47.5606 30.8658 47.3671C30.7464 47.1737 30.6784 46.9529 30.6683 46.7257C30.6582 46.4986 30.7064 46.2726 30.8083 46.0693L33.4749 40.736C33.633 40.4195 33.9103 40.1788 34.2459 40.0667C34.5815 39.9547 34.9478 39.9806 35.2643 40.1387C35.5808 40.2967 35.8215 40.5741 35.9335 40.9096C36.0456 41.2452 36.0197 41.6115 35.8616 41.928L33.1949 47.2613C33.0835 47.4828 32.9129 47.6691 32.702 47.7995C32.4911 47.9299 32.2482 47.9993 32.0003 48Z" fill="#262522"/>
</g>
<defs>
<clipPath id="clip0_111_173">
<rect width="64" height="64" fill="white"/>
</clipPath>
</defs>
</svg>
