<svg width="24" height="24" viewBox="0 0 24 24" fill="none" xmlns="http://www.w3.org/2000/svg">
<path d="M15.6429 18.3988L14.2767 13.7897L17.6923 11.3718H13.4418L11.9996 6.68706V15.6031L15.6429 18.3988ZM6.38281 23.6503C5.80089 24.1036 5.20631 24.1162 4.59909 23.688C3.99187 23.2599 3.78946 22.6932 3.99187 21.9879L6.1551 14.9986L0.652148 11.1073C0.0449257 10.6791 -0.138253 10.1124 0.102612 9.40721C0.342465 8.70199 0.829254 8.34937 1.56298 8.34937H8.35628L10.5575 1.09562C10.684 0.743006 10.8803 0.471998 11.1465 0.282595C11.4116 0.0941985 11.696 0 11.9996 0C12.3032 0 12.5876 0.0941985 12.8528 0.282595C13.1189 0.471998 13.3153 0.743006 13.4418 1.09562L15.6429 8.34937H22.4362C23.17 8.34937 23.6573 8.70199 23.8981 9.40721C24.138 10.1124 23.9543 10.6791 23.3471 11.1073L17.8441 14.9986L20.0074 21.9879C20.2098 22.6932 20.0074 23.2599 19.4001 23.688C18.7929 24.1162 18.1983 24.1036 17.6164 23.6503L11.9996 19.3811L6.38281 23.6503Z" fill="#F29C33"/>
</svg>
